<svg width="51" height="51" viewBox="0 0 51 51" fill="none" xmlns="http://www.w3.org/2000/svg">
<g clip-path="url(#clip0_1_786)">
<path d="M50.0864 25.1681C50.0864 11.5734 39.0317 0.552734 25.395 0.552734C11.7584 0.552734 0.703674 11.5734 0.703674 25.1681C0.703674 38.7628 11.7584 49.7835 25.395 49.7835C39.0317 49.7835 50.0864 38.7628 50.0864 25.1681Z" fill="#A5BEFF"/>
<path d="M33.3328 18.0687L25.6167 15.761C25.5015 15.7265 25.3798 15.7194 25.2614 15.7401C25.1429 15.7609 25.0309 15.809 24.9344 15.8806C24.8379 15.9522 24.7595 16.0453 24.7055 16.1524C24.6515 16.2596 24.6234 16.3778 24.6234 16.4977V21.0958C24.6231 21.1076 24.6231 21.1193 24.6234 21.1311V26.9075C23.8335 26.2035 22.8252 25.7911 21.767 25.7392C20.7088 25.6873 19.6647 25.999 18.8093 26.6222C17.9539 27.2454 17.3389 28.1424 17.0673 29.1634C16.7955 30.1843 16.8835 31.2673 17.3164 32.2313C17.7493 33.1954 18.501 33.9821 19.4458 34.4601C20.3906 34.938 21.4714 35.0782 22.5075 34.8572C23.5436 34.6363 24.4721 34.0675 25.1382 33.2461C25.8041 32.4246 26.1672 31.4001 26.1666 30.3439V22.147L32.8893 24.1576C33.0045 24.1921 33.1263 24.1992 33.2447 24.1784C33.3632 24.1577 33.4751 24.1096 33.5717 24.038C33.6682 23.9664 33.7466 23.8733 33.8006 23.7661C33.8545 23.659 33.8827 23.5407 33.8827 23.4208V18.8054C33.8827 18.64 33.8292 18.479 33.7301 18.3463C33.6311 18.2135 33.4917 18.1162 33.3328 18.0687Z" fill="#0033B6"/>
</g>
<defs>
<clipPath id="clip0_1_786">
<rect width="49.3827" height="50" fill="white" transform="translate(0.703674 0.34375)"/>
</clipPath>
</defs>
</svg>
